<?xml version="1.0" encoding="utf-8"?>
<svg viewBox="280.923 183.733 256 256" width="256px" height="256px" xmlns="http://www.w3.org/2000/svg">
  <g transform="matrix(2.56, 0, 0, 2.56, -438.239899, -286.623474)">
    <circle style="fill: rgb(41, 42, 51);" cx="330.923" cy="233.733" r="50"/>
    <path d="M 345.585 253.104 C 345.412 254.611 345.165 256.087 344.845 257.534 C 344.525 258.981 344.132 260.271 343.665 261.404 C 343.205 262.531 342.612 263.427 341.885 264.094 C 341.165 264.761 340.342 265.094 339.415 265.094 C 338.488 265.094 337.648 264.384 336.895 262.964 C 336.142 261.544 335.432 259.661 334.765 257.314 C 334.098 254.967 333.488 252.317 332.935 249.364 C 332.382 246.411 331.888 243.411 331.455 240.364 C 331.022 237.324 330.662 234.354 330.375 231.454 C 330.082 228.561 329.848 226.041 329.675 223.894 C 329.328 226.101 328.922 228.564 328.455 231.284 C 327.995 234.011 327.445 236.777 326.805 239.584 C 326.172 242.397 325.478 245.151 324.725 247.844 C 323.972 250.537 323.158 252.941 322.285 255.054 C 321.418 257.167 320.492 258.864 319.505 260.144 C 318.518 261.417 317.475 262.054 316.375 262.054 C 315.395 262.054 314.412 261.387 313.425 260.054 C 312.438 258.721 311.482 256.967 310.555 254.794 C 309.628 252.621 308.758 250.201 307.945 247.534 C 307.138 244.874 306.385 242.194 305.685 239.494 C 304.992 236.801 304.385 234.254 303.865 231.854 C 303.345 229.447 302.938 227.434 302.645 225.814 C 302.645 227.027 302.632 228.374 302.605 229.854 C 302.572 231.327 302.555 232.384 302.555 233.024 C 302.555 233.311 302.542 234.267 302.515 235.894 C 302.488 237.514 302.388 239.454 302.215 241.714 C 302.042 243.974 301.778 246.394 301.425 248.974 C 301.078 251.554 300.572 253.944 299.905 256.144 C 299.238 258.344 298.415 260.197 297.435 261.704 C 296.448 263.211 295.232 264.021 293.785 264.134 C 292.625 263.614 291.652 262.731 290.865 261.484 C 290.085 260.237 289.435 258.774 288.915 257.094 C 288.395 255.414 287.988 253.621 287.695 251.714 C 287.408 249.801 287.178 247.931 287.005 246.104 C 286.832 244.277 286.728 242.584 286.695 241.024 C 286.668 239.457 286.655 238.181 286.655 237.194 C 286.655 235.454 286.755 233.267 286.955 230.634 C 287.162 227.994 287.495 225.227 287.955 222.334 C 288.422 219.434 289.032 216.537 289.785 213.644 C 290.538 210.744 291.452 208.151 292.525 205.864 C 293.592 203.577 294.835 201.707 296.255 200.254 C 297.675 198.807 299.312 198.084 301.165 198.084 C 302.038 198.084 302.965 198.577 303.945 199.564 C 304.932 200.544 305.918 201.831 306.905 203.424 C 307.892 205.024 308.848 206.807 309.775 208.774 C 310.702 210.747 311.585 212.731 312.425 214.724 C 313.265 216.724 314.005 218.637 314.645 220.464 C 315.278 222.291 315.798 223.841 316.205 225.114 C 316.672 223.721 317.252 222.097 317.945 220.244 C 318.638 218.391 319.405 216.464 320.245 214.464 C 321.085 212.464 322.012 210.494 323.025 208.554 C 324.038 206.614 325.095 204.877 326.195 203.344 C 327.302 201.804 328.418 200.557 329.545 199.604 C 330.678 198.651 331.822 198.174 332.975 198.174 C 335.008 198.174 336.748 198.927 338.195 200.434 C 339.642 201.941 340.858 203.894 341.845 206.294 C 342.832 208.701 343.615 211.397 344.195 214.384 C 344.775 217.364 345.222 220.317 345.535 223.244 C 345.855 226.171 346.058 228.907 346.145 231.454 C 346.232 234.007 346.275 236.067 346.275 237.634 C 346.275 238.267 346.275 239.134 346.275 240.234 C 346.275 241.334 346.262 242.581 346.235 243.974 C 346.208 245.367 346.135 246.844 346.015 248.404 C 345.902 249.971 345.758 251.537 345.585 253.104 Z" transform="matrix(1, 0, 0, 1, 0, 0)" style="fill: rgb(239, 129, 11); white-space: pre;"/>
    <path d="M 354.814 263.144 C 351.641 263.144 348.881 262.351 346.534 260.764 C 344.194 259.171 342.254 257.034 340.714 254.354 C 339.181 251.674 338.037 248.561 337.284 245.014 C 336.524 241.474 336.144 237.751 336.144 233.844 C 336.144 230.197 336.547 226.501 337.354 222.754 C 338.161 219.001 339.397 215.614 341.064 212.594 C 342.731 209.574 344.841 207.101 347.394 205.174 C 349.947 203.247 352.994 202.284 356.534 202.284 C 359.974 202.284 362.854 203.207 365.174 205.054 C 367.487 206.907 369.334 209.304 370.714 212.244 C 372.094 215.184 373.084 218.477 373.684 222.124 C 374.284 225.771 374.584 229.417 374.584 233.064 C 374.584 237.124 374.181 240.964 373.374 244.584 C 372.567 248.204 371.344 251.394 369.704 254.154 C 368.064 256.914 366.007 259.104 363.534 260.724 C 361.054 262.337 358.147 263.144 354.814 263.144 Z M 355.754 219.544 C 354.767 219.544 353.921 219.937 353.214 220.724 C 352.514 221.504 351.931 222.531 351.464 223.804 C 350.991 225.084 350.651 226.517 350.444 228.104 C 350.237 229.691 350.134 231.291 350.134 232.904 C 350.134 234.731 350.251 236.554 350.484 238.374 C 350.717 240.201 351.067 241.841 351.534 243.294 C 352.007 244.754 352.594 245.927 353.294 246.814 C 354.001 247.701 354.847 248.144 355.834 248.144 C 356.981 248.144 357.891 247.571 358.564 246.424 C 359.244 245.277 359.781 243.897 360.174 242.284 C 360.561 240.671 360.821 239.004 360.954 237.284 C 361.081 235.564 361.144 234.131 361.144 232.984 C 361.144 231.577 361.054 230.094 360.874 228.534 C 360.694 226.967 360.394 225.521 359.974 224.194 C 359.561 222.867 359.014 221.761 358.334 220.874 C 357.654 219.987 356.794 219.544 355.754 219.544 Z" transform="matrix(1, 0, 0, 1, 0, 0)" style="fill: rgb(255, 255, 255); white-space: pre;"/>
    <path d="M 380.161 258.495 C 380.161 259.182 379.881 259.825 379.321 260.425 C 378.761 261.025 378.038 261.572 377.151 262.065 C 376.264 262.558 375.274 262.988 374.181 263.355 C 373.088 263.722 372.008 264.035 370.941 264.295 C 369.874 264.555 368.868 264.755 367.921 264.895 C 366.981 265.028 366.238 265.095 365.691 265.095 C 365.171 265.095 364.618 265.048 364.031 264.955 C 363.438 264.862 362.951 264.648 362.571 264.315 C 362.351 264.155 362.161 263.788 362.001 263.215 C 361.834 262.642 361.674 261.958 361.521 261.165 C 361.374 260.372 361.244 259.515 361.131 258.595 C 361.024 257.682 360.938 256.788 360.871 255.915 C 360.798 255.035 360.741 254.228 360.701 253.495 C 360.661 252.755 360.641 252.178 360.641 251.765 C 360.641 251.085 360.661 250.258 360.701 249.285 C 360.741 248.318 360.804 247.278 360.891 246.165 C 360.971 245.058 361.081 243.932 361.221 242.785 C 361.354 241.638 361.511 240.552 361.691 239.525 C 361.864 238.498 362.081 237.575 362.341 236.755 C 362.601 235.935 362.881 235.292 363.181 234.825 C 363.701 234.092 364.358 233.725 365.151 233.725 C 365.698 233.725 366.164 233.908 366.551 234.275 C 366.931 234.642 367.238 235.122 367.471 235.715 C 367.704 236.302 367.881 236.955 368.001 237.675 C 368.128 238.402 368.218 239.122 368.271 239.835 C 368.324 240.542 368.351 241.198 368.351 241.805 C 368.351 242.405 368.351 242.882 368.351 243.235 C 368.351 245.368 368.304 247.482 368.211 249.575 C 368.118 251.668 368.071 253.782 368.071 255.915 L 368.071 257.515 C 369.298 257.128 370.634 256.765 372.081 256.425 C 373.534 256.085 374.918 255.915 376.231 255.915 C 376.691 255.915 377.161 255.942 377.641 255.995 C 378.121 256.048 378.544 256.165 378.911 256.345 C 379.284 256.518 379.588 256.778 379.821 257.125 C 380.048 257.465 380.161 257.922 380.161 258.495 Z" transform="matrix(1, 0, 0, 1, 0, 0)" style="fill: rgb(239, 129, 11); white-space: pre;"/>
  </g>
</svg>